<?xml version="1.0" encoding="UTF-8" standalone="no"?>
<!DOCTYPE svg PUBLIC "-//W3C//DTD SVG 1.1//EN" "http://www.w3.org/Graphics/SVG/1.1/DTD/svg11.dtd">
<svg width="100%" height="100%" viewBox="0 0 859 896" version="1.1" xmlns="http://www.w3.org/2000/svg" xmlns:xlink="http://www.w3.org/1999/xlink" xml:space="preserve" xmlns:serif="http://www.serif.com/" style="fill-rule:evenodd;clip-rule:evenodd;stroke-linecap:round;stroke-linejoin:round;stroke-miterlimit:1.5;">
    <g transform="matrix(1,0,0,1,-116,-1172)">
        <g id="Horizon" transform="matrix(1,0,0,1,0.00399562,1080)">
            <path d="M136.399,303.75L545.596,112.5L954.793,303.75L954.793,776.25L545.596,967.5L136.399,776.25L136.399,303.75Z" style="fill:white;stroke:white;stroke-width:40px;"/>
            <path d="M553.982,116.843C548.661,114.386 542.531,114.386 537.21,116.843L147.498,296.843C140.418,300.113 135.885,307.201 135.885,315L135.885,765C135.885,772.799 140.418,779.887 147.498,783.157L537.21,963.157C542.531,965.614 548.661,965.614 553.982,963.157L943.694,783.157C950.774,779.887 955.307,772.799 955.307,765L955.307,315C955.307,307.201 950.774,300.113 943.694,296.843L553.982,116.843ZM720.966,238.03L545.596,157.03L175.885,327.793L175.885,752.207L545.596,922.97L720.966,841.97L720.966,238.03Z" style="fill:rgb(0,105,145);"/>
            <g transform="matrix(4.61306e-17,-0.75337,0.75337,4.61306e-17,428.41,897.283)">
                <g transform="matrix(3.36847,0,0,3.52839,-1675.22,-1003.35)">
                    <ellipse cx="607.997" cy="437.667" rx="8.906" ry="8.502" style="fill:white;"/>
                </g>
                <path d="M371.563,470.915C333.496,471.576 302.798,502.683 302.798,540.904C302.798,579.538 334.164,610.904 372.798,610.904L408.661,610.904C419.699,610.904 428.661,601.942 428.661,590.904L428.661,495.311C428.661,451.158 464.508,415.311 508.661,415.311C552.814,415.311 588.661,451.158 588.661,495.311L588.661,590.904C588.661,601.942 597.623,610.904 608.661,610.904C619.699,610.904 628.661,601.942 628.661,590.904L628.7,525.9C628.7,509.343 642.143,495.9 658.7,495.9C675.257,495.9 688.7,509.343 688.7,525.9L688.661,590.904C688.661,635.057 652.814,670.904 608.661,670.904C564.508,670.904 528.661,635.057 528.661,590.904L528.661,495.311C528.661,484.273 519.699,475.311 508.661,475.311C497.623,475.311 488.661,484.273 488.661,495.311L488.661,590.904C488.661,635.057 452.814,670.904 408.661,670.904C408.661,670.904 372.798,670.904 372.798,670.904C301.049,670.904 242.798,612.653 242.798,540.904C242.798,469.155 301.049,410.904 372.798,410.904C373.339,410.904 373.878,410.918 374.413,410.946C393.219,411.166 411.068,415.387 427.156,422.799C413.605,437.523 404.204,456.128 400.818,476.75C392.251,473.011 382.799,470.937 372.866,470.937C372.429,470.937 371.993,470.93 371.563,470.915Z" style="fill:white;"/>
                <g transform="matrix(2.5841,0,0,2.79858,-1092.79,-791.427)">
                    <ellipse cx="677.794" cy="440.342" rx="11.609" ry="10.72" style="fill:white;"/>
                </g>
            </g>
            <g transform="matrix(0.627083,0,0,1,169.941,-1029.88)">
                <path d="M221.129,1725.12L690.309,1725.12" style="fill:none;stroke:rgb(237,131,185);stroke-width:23.96px;"/>
            </g>
            <g transform="matrix(0.850036,0,0,1,68.3375,-1054.94)">
                <path d="M221.129,1725.12L690.309,1725.12" style="fill:none;stroke:rgb(238,86,164);stroke-width:21.55px;"/>
            </g>
            <g transform="matrix(1,0,0,1,-0.00399562,-1080)">
                <path d="M221.129,1725.12L690.309,1725.12" style="fill:none;stroke:rgb(226,0,116);stroke-width:20px;"/>
            </g>
            <g id="Sonne" transform="matrix(1,0,0,1,0.285577,-1080)">
                <g transform="matrix(1.16636,0,0,1.16636,-89.741,-283.357)">
                    <path d="M382.44,1695.26C373.774,1680.61 368.813,1663.52 368.813,1645.28C368.813,1590.87 412.993,1546.69 467.41,1546.69C521.827,1546.69 566.007,1590.87 566.007,1645.28C566.007,1663.52 561.046,1680.61 552.379,1695.26" style="fill:none;stroke:rgb(226,0,116);stroke-width:17.15px;"/>
                </g>
                <path d="M221.977,1635.64L299.304,1635.64" style="fill:none;stroke:rgb(226,0,116);stroke-width:20px;"/>
                <path d="M290.7,1470.37L344.572,1525.51" style="fill:none;stroke:rgb(226,0,116);stroke-width:20px;"/>
                <path d="M455.429,1402.38L455.429,1479.4" style="fill:none;stroke:rgb(226,0,116);stroke-width:20px;"/>
                <path d="M566.015,1525.36L620.637,1470.64" style="fill:none;stroke:rgb(226,0,116);stroke-width:20px;"/>
                <path d="M611.554,1635.63L688.881,1635.76" style="fill:none;stroke:rgb(226,0,116);stroke-width:20px;"/>
            </g>
        </g>
    </g>
</svg>
